<?xml version="1.0" standalone="no"?>
<!DOCTYPE svg PUBLIC "-//W3C//DTD SVG 20010904//EN"
 "http://www.w3.org/TR/2001/REC-SVG-20010904/DTD/svg10.dtd">
<svg version="1.0" xmlns="http://www.w3.org/2000/svg"
 width="579.000000pt" height="579.000000pt" viewBox="0 0 579.000000 579.000000"
 preserveAspectRatio="xMidYMid meet">

<g transform="translate(0.000000,579.000000) scale(0.100000,-0.100000)"
fill="#000000" stroke="none">
<path d="M2710 5784 c-19 -2 -82 -9 -140 -15 -1011 -106 -1919 -776 -2326
-1714 -106 -245 -172 -476 -217 -765 -31 -199 -30 -594 2 -800 98 -642 374
-1193 821 -1640 451 -451 992 -721 1650 -823 195 -30 595 -30 790 0 288 45
520 111 765 217 768 333 1373 1015 1610 1814 88 298 119 515 119 837 0 257
-13 387 -60 604 -178 826 -702 1529 -1442 1934 -321 176 -647 282 -1017 332
-113 15 -478 28 -555 19z m206 -708 c204 -186 309 -426 307 -701 0 -100 -5
-135 -27 -210 -65 -216 -157 -372 -474 -804 -306 -416 -403 -593 -433 -789 -7
-45 -16 -82 -20 -82 -16 0 -136 109 -179 164 -152 190 -216 384 -208 630 4
114 9 143 36 223 36 107 92 221 167 342 51 83 99 150 361 511 151 207 247 360
296 471 42 94 78 223 78 276 0 20 5 33 13 33 7 0 44 -29 83 -64z m692 -1153
c65 -163 106 -291 134 -417 31 -135 32 -375 4 -480 -76 -284 -277 -524 -531
-634 -154 -67 -206 -77 -380 -77 -88 0 -173 4 -189 8 l-29 8 7 65 c20 198 127
396 450 834 278 377 392 568 448 746 12 41 25 74 29 74 3 0 29 -57 57 -127z
m520 -1895 c9 -9 12 -89 12 -299 0 -319 5 -299 -70 -299 -29 0 -43 6 -57 25
l-18 25 -38 -27 c-90 -64 -233 -6 -284 114 -7 18 -13 62 -13 98 0 100 42 175
119 214 65 33 110 35 164 6 26 -14 50 -25 53 -25 2 0 4 38 4 84 0 58 4 86 13
89 24 10 103 7 115 -5z m-3340 -67 c20 -10 46 -29 56 -40 20 -22 20 -22 -22
-64 -36 -36 -44 -40 -60 -29 -67 48 -137 49 -137 1 0 -21 11 -28 85 -57 103
-41 138 -65 156 -108 19 -46 17 -88 -6 -134 -57 -112 -238 -135 -356 -45 -52
40 -52 51 -6 98 l41 41 23 -21 c65 -59 151 -68 164 -17 9 34 -5 45 -98 84
-115 47 -157 102 -145 192 11 81 98 132 210 123 31 -3 74 -13 95 -24z m1298
11 c6 -4 35 -78 63 -164 29 -87 56 -158 59 -158 4 0 29 72 56 160 28 91 55
161 63 165 23 8 131 6 137 -3 3 -5 -10 -52 -29 -104 l-33 -94 21 -62 c12 -34
25 -62 28 -62 4 0 28 62 54 138 71 203 63 192 140 192 35 0 66 -4 70 -10 6 -9
-189 -503 -208 -527 -5 -7 -31 -13 -58 -13 -55 0 -64 9 -95 98 -10 28 -21 52
-25 52 -3 0 -16 -28 -29 -62 -12 -35 -27 -69 -32 -75 -6 -7 -32 -13 -59 -13
-39 0 -51 4 -63 23 -25 39 -197 500 -192 514 6 14 112 19 132 5z m-251 -92
c79 -33 126 -114 126 -215 0 -70 -15 -115 -56 -163 -67 -80 -206 -102 -261
-41 -19 21 -19 20 -24 -72 l-5 -94 -65 0 -65 0 0 300 0 300 48 3 c45 3 48 2
58 -27 13 -38 19 -38 49 -6 44 46 111 52 195 15z m1145 20 c11 0 35 -14 55
-31 20 -18 37 -30 38 -28 2 2 8 17 15 32 11 26 16 28 60 25 l47 -3 3 -219 c2
-153 -1 -223 -9 -232 -12 -14 -74 -19 -103 -8 -9 3 -16 12 -16 19 0 26 -21 26
-51 1 -82 -69 -243 -6 -293 116 -9 21 -16 62 -16 93 0 67 20 118 63 163 49 51
134 88 175 76 8 -2 22 -4 32 -4z m633 -26 c43 -28 45 -40 16 -88 -23 -39 -40
-43 -79 -21 -36 21 -70 18 -97 -7 -22 -20 -23 -28 -23 -163 0 -96 -4 -145 -12
-153 -7 -7 -36 -12 -65 -12 -41 0 -54 4 -63 19 -6 12 -10 100 -10 216 0 116 4
204 10 216 8 14 21 19 50 19 32 0 43 -5 57 -27 9 -16 18 -30 20 -32 2 -3 11 6
20 18 36 53 107 59 176 15z m949 -2 c72 -38 118 -116 118 -199 0 -22 -6 -36
-19 -43 -11 -5 -83 -10 -160 -10 -82 0 -141 -4 -141 -9 0 -6 10 -22 23 -36 32
-37 84 -43 140 -16 55 27 58 27 90 -7 33 -34 33 -43 4 -70 -63 -59 -181 -70
-268 -24 -134 69 -169 248 -73 361 78 91 180 110 286 53z m545 2 c68 -39 86
-90 91 -260 6 -178 2 -186 -76 -182 l-57 3 -5 140 c-5 140 -14 177 -46 189
-31 12 -68 6 -91 -16 -22 -20 -23 -29 -23 -150 0 -71 -5 -138 -10 -149 -9 -15
-22 -19 -63 -19 -29 0 -58 5 -65 12 -17 17 -17 429 0 446 7 7 28 12 48 12 40
0 60 -14 60 -42 0 -24 9 -23 41 8 51 48 120 51 196 8z m-4017 -127 c5 -141 6
-150 29 -168 32 -26 77 -24 106 6 24 23 25 29 25 164 0 160 -2 156 91 149 l44
-3 3 -224 c3 -243 3 -241 -53 -241 -39 0 -52 9 -60 43 l-7 28 -31 -31 c-35
-36 -62 -44 -126 -38 -64 6 -108 39 -137 102 -22 47 -24 64 -24 202 0 83 3
154 7 158 4 4 34 6 68 4 l60 -3 5 -148z"/>
<path d="M3828 1751 c-30 -27 -33 -35 -33 -85 0 -47 4 -60 28 -83 22 -22 37
-28 72 -28 82 0 136 83 101 157 -34 70 -113 88 -168 39z"/>
<path d="M1668 1764 c-55 -29 -73 -104 -39 -160 41 -67 135 -70 178 -5 68 100
-35 222 -139 165z"/>
<path d="M2878 1751 c-30 -26 -33 -35 -33 -84 0 -45 5 -60 24 -81 50 -53 143
-38 175 29 20 42 20 59 0 101 -32 67 -111 84 -166 35z"/>
<path d="M4393 1766 c-15 -13 -25 -27 -22 -31 4 -3 44 -5 90 -3 l84 3 -27 28
c-35 35 -86 37 -125 3z"/>
</g>
</svg>
